<svg width="512" height="512" viewBox="0 0 512 512" fill="none" xmlns="http://www.w3.org/2000/svg">
<path d="M237.844 341.812L261.75 332.125V181.812L237.844 172.125V144.938L337.062 143.375V172.125L311.438 181.812V233.062H395.188V181.812L369.562 172.125V144.938L468.781 143.375V172.125L444.875 181.812V332.125L468.781 341.812V369H369.562V341.812L395.188 332.125V271.344H311.438V332.125L337.062 341.812V369H237.844V341.812Z" fill="black"/>
<path d="M150.406 143.375C171.969 143.375 189.052 148.01 201.656 157.281C214.365 166.552 220.719 180.354 220.719 198.688C220.719 225.771 207.958 243.375 182.438 251.5C197.333 255.771 208.635 262.281 216.344 271.031C224.156 279.781 228.062 290.354 228.062 302.75C228.062 346.917 200.354 369 144.938 369H43.2188V341.812L67.125 332.125V181.812L43.2188 172.125V144.938L116.812 143.375H150.406ZM135.406 235.562C147.073 235.562 155.927 233.062 161.969 228.062C168.115 223.062 171.188 215.667 171.188 205.875C171.188 197.958 168.688 191.969 163.688 187.906C158.688 183.844 152.125 181.812 144 181.812H116.812V235.562H135.406ZM143.375 330.562C154.417 330.562 162.854 328.167 168.688 323.375C174.625 318.583 177.594 311.708 177.594 302.75C177.594 291.188 174.156 282.698 167.281 277.281C160.51 271.865 149.885 269.156 135.406 269.156H116.812V330.562H143.375Z" fill="black"/>
</svg>
